<svg xmlns="http://www.w3.org/2000/svg" xmlns:xlink="http://www.w3.org/1999/xlink" width="1920" height="1080" viewBox="0 0 1920 1080">
  <defs>
    <clipPath id="clip-Web_1920_4">
      <rect width="1920" height="1080"/>
    </clipPath>
  </defs>
  <g id="Web_1920_4" data-name="Web 1920 – 4" clip-path="url(#clip-Web_1920_4)">
    <rect width="1920" height="1080" fill="#fff"/>
    <g id="Path_1" data-name="Path 1" transform="translate(580 54)" fill="#c0babc">
      <path d="M 700 844.5 L 61 844.5 C 52.83233261108398 844.5 44.90922164916992 842.9004516601563 37.45088958740234 839.7457885742188 C 33.86611175537109 838.2295532226563 30.40855598449707 836.3529052734375 27.17422294616699 834.1679077148438 C 23.97055625915527 832.00341796875 20.95788955688477 829.5178833007813 18.21999931335449 826.780029296875 C 15.48222255706787 824.0421142578125 12.99655532836914 821.0294189453125 10.83211135864258 817.8258056640625 C 8.647110939025879 814.591552734375 6.770444393157959 811.1339721679688 5.254222393035889 807.5491943359375 C 2.099555492401123 800.0907592773438 0.5 792.1676635742188 0.5 784 L 0.5 61 C 0.5 52.83233261108398 2.099555492401123 44.90922164916992 5.254222393035889 37.45088958740234 C 6.770444393157959 33.86611175537109 8.647110939025879 30.40855598449707 10.83211135864258 27.17422294616699 C 12.99655532836914 23.97055625915527 15.48222255706787 20.95788955688477 18.21999931335449 18.21999931335449 C 20.95788955688477 15.48222255706787 23.97055625915527 12.99655532836914 27.17422294616699 10.83211135864258 C 30.40855598449707 8.647110939025879 33.86611175537109 6.770444393157959 37.45088958740234 5.254222393035889 C 44.90922164916992 2.099555492401123 52.83233261108398 0.5 61 0.5 L 700 0.5 C 708.1676635742188 0.5 716.0907592773438 2.099555492401123 723.5491943359375 5.254222393035889 C 727.1339721679688 6.770444393157959 730.591552734375 8.647110939025879 733.8258056640625 10.83211135864258 C 737.0294189453125 12.99655532836914 740.0421142578125 15.48222255706787 742.780029296875 18.21999931335449 C 745.5178833007813 20.95788955688477 748.00341796875 23.97055625915527 750.1679077148438 27.17422294616699 C 752.3529052734375 30.40855598449707 754.2295532226563 33.86611175537109 755.7457885742188 37.45088958740234 C 758.9004516601563 44.90922164916992 760.5 52.83233261108398 760.5 61 L 760.5 784 C 760.5 792.1676635742188 758.9004516601563 800.0907592773438 755.7457885742188 807.5491943359375 C 754.2295532226563 811.1339721679688 752.3529052734375 814.591552734375 750.1679077148438 817.8258056640625 C 748.0035400390625 821.0294189453125 745.5178833007813 824.0421142578125 742.780029296875 826.780029296875 C 740.0421142578125 829.5178833007813 737.0294189453125 832.0035400390625 733.8258056640625 834.1679077148438 C 730.591552734375 836.3529052734375 727.1339721679688 838.2295532226563 723.5491943359375 839.7457885742188 C 716.0907592773438 842.9004516601563 708.1676635742188 844.5 700 844.5 Z" stroke="none"/>
      <path d="M 61 1 C 52.8995361328125 1 45.0419921875 2.58624267578125 37.64556884765625 5.71466064453125 C 34.090576171875 7.21832275390625 30.66168212890625 9.0794677734375 27.4541015625 11.2464599609375 C 24.27679443359375 13.39300537109375 21.28887939453125 15.85821533203125 18.57354736328125 18.57354736328125 C 15.85821533203125 21.28887939453125 13.39300537109375 24.27679443359375 11.2464599609375 27.4541015625 C 9.0794677734375 30.66168212890625 7.21832275390625 34.090576171875 5.71466064453125 37.64556884765625 C 2.58624267578125 45.0419921875 1 52.8995361328125 1 61 L 1 784 C 1 792.100341796875 2.58624267578125 799.9578857421875 5.71466064453125 807.3543090820313 C 7.21832275390625 810.909423828125 9.0794677734375 814.3383178710938 11.2464599609375 817.5458984375 C 13.39300537109375 820.7232055664063 15.85821533203125 823.7109985351563 18.57354736328125 826.4264526367188 C 21.28887939453125 829.1417846679688 24.27679443359375 831.6069946289063 27.4541015625 833.7535400390625 C 30.66168212890625 835.9204711914063 34.090576171875 837.7816772460938 37.64556884765625 839.2853393554688 C 45.0419921875 842.4137573242188 52.8995361328125 844 61 844 L 700 844 C 708.100341796875 844 715.9578857421875 842.4137573242188 723.3543090820313 839.2853393554688 C 726.909423828125 837.7816772460938 730.3383178710938 835.9204711914063 733.5458984375 833.7535400390625 C 736.7232055664063 831.6069946289063 739.7109985351563 829.1417846679688 742.4264526367188 826.4264526367188 C 745.1417846679688 823.7109985351563 747.6069946289063 820.7232055664063 749.7535400390625 817.5458984375 C 751.9204711914063 814.3383178710938 753.7816772460938 810.909423828125 755.2853393554688 807.3543090820313 C 758.4137573242188 799.9578857421875 760 792.100341796875 760 784 L 760 61 C 760 52.8995361328125 758.4137573242188 45.0419921875 755.2853393554688 37.64556884765625 C 753.7816772460938 34.090576171875 751.9204711914063 30.66168212890625 749.7535400390625 27.4541015625 C 747.6069946289063 24.27679443359375 745.1417846679688 21.28887939453125 742.4264526367188 18.57354736328125 C 739.7109985351563 15.85821533203125 736.7232055664063 13.39300537109375 733.5458984375 11.2464599609375 C 730.3383178710938 9.0794677734375 726.909423828125 7.21832275390625 723.3543090820313 5.71466064453125 C 715.9578857421875 2.58624267578125 708.100341796875 1 700 1 L 61 1 M 61 0 L 700 0 C 733.6893310546875 0 761 27.310546875 761 61 L 761 784 C 761 817.6893310546875 733.6893310546875 845 700 845 L 61 845 C 27.310546875 845 0 817.6893310546875 0 784 L 0 61 C 0 27.310546875 27.310546875 0 61 0 Z" stroke="none" fill="#707070"/>
    </g>
    <g id="humaaans_sitting-2" data-name="humaaans/sitting-2" transform="translate(44 516)">
      <g id="A-Human_Sitting" data-name="A-Human/Sitting" transform="translate(26 -40)">
        <g id="Head_Front_Rad" data-name="Head/Front/Rad" transform="translate(54 0)">
          <g id="Head" transform="translate(17 16)">
            <path id="Path_2" data-name="Path 2" d="M8.262,34.49C3.654,29.081.536,22.453,1.057,15.026c1.5-21.4,31.292-16.693,37.087-5.892s5.106,38.2-2.383,40.13c-2.987.77-9.349-1.116-15.825-5.019L24,73H0Z" fill="#b28b67" fill-rule="evenodd"/>
          </g>
          <path id="hair" d="M58.407,33.1A7.5,7.5,0,0,1,59.97,36a29.358,29.358,0,0,1,1,3.3c.5,2.249.509,4.836-1.1,6.582a7.548,7.548,0,0,1-5,2.165,9.185,9.185,0,0,1-3.545-.449c-1.129-.371-2.1-1.111-3.2-1.57a14.305,14.305,0,0,1-1.687,7.03,7.008,7.008,0,0,1-5.218,3.4,10.347,10.347,0,0,1-6.357-1.28c-.494-.267-.984-.548-1.452-.864a4.072,4.072,0,0,0-1.261-.693c-.513-.121-.768.176-1.1.55a8.374,8.374,0,0,1-1.3,1.168,7.647,7.647,0,0,1-7.155,1.23,6.65,6.65,0,0,1-2.917-2.109c-.666-.873-1.14-2.258-2.059-2.866-.39-.258-.665.084-1.02.337-.533.38-1.042.8-1.581,1.169a7.243,7.243,0,0,1-2.457,1.111c-1.286.3-3.064.228-3.432-1.457a6.958,6.958,0,0,1,.012-1.947c.061-.876.125-1.751.2-2.625a18.972,18.972,0,0,1,.256-1.957,2.863,2.863,0,0,0,.127-1.343c-.186-.435-1.046-.188-1.413-.2A5.581,5.581,0,0,1,6.2,44.22a2.286,2.286,0,0,1-1.285-1.189,2.136,2.136,0,0,1-.036-1.118,3.337,3.337,0,0,0-.068-1.147c-.974.48-4.349,1.545-4.774-.2a2.731,2.731,0,0,1,.426-1.728,14.983,14.983,0,0,1,1.573-2.395,21.413,21.413,0,0,1,4.19-4.065,2.746,2.746,0,0,1-.716-4.6,3.4,3.4,0,0,1,2.5-.724,5.521,5.521,0,0,0,1.033.082,2.472,2.472,0,0,1,.468-.158,13.928,13.928,0,0,1,3.832.486,12.636,12.636,0,0,1,5.844,3.056,1.8,1.8,0,0,0,1.352.621c.5-.005,1-.143,1.5-.156a10.791,10.791,0,0,1,3.761,1.048,14.189,14.189,0,0,1,1.232-5c.556-1.223,1.717-1.4,2.858-1.508,3.648-.343,7.31.04,10.963.035-3.536-.8-7.191-1.129-10.7-2.069-1.584-.425-.375-1.493.3-2.233a12.867,12.867,0,0,0,2.52-4.32c1.73,2.255,4.788,3.741,7.5,3.048,2.993-.765,5.1-4.813,3.187-7.723-1.111-1.689-3.118-2.341-4.788-3.067,1.3-1.354,1.618-3.354,2.4-5.039a3.606,3.606,0,0,1,1.794-2.06,2.1,2.1,0,0,0,.947-.377c.313-.323.387-.684.786-.961a4.434,4.434,0,0,1,5.494.423,3.586,3.586,0,0,1-.122,4.7c1.7.708,4.791,1.618,4.116,4.263,3.679.244,12.611,6.211,7.674,10.571,2.71,1.532,5.2,5.274,3.459,8.574-1.341,2.541-4.458,3.676-7.015,3.811" transform="translate(66 57) rotate(180)" fill="#191847" fill-rule="evenodd"/>
        </g>
        <g id="Bottom_Sitting_Skinny-Jeans-1" data-name="Bottom/Sitting/Skinny-Jeans-1" transform="translate(0 172)">
          <g id="Objects_Seat_Cube" data-name="Objects/Seat/Cube" transform="translate(0 42)">
            <g id="Seat">
              <path id="Seat-Stuff" d="M27.623,0h77.254L115,124H0Z" fill="#c5cfd6" fill-rule="evenodd"/>
              <path id="Seat-Stuff-2" data-name="Seat-Stuff" d="M27.623,0h23.76L65.6,124H0Z" fill="rgba(0,0,0,0.1)" fill-rule="evenodd"/>
            </g>
          </g>
          <path id="Skin" d="M67.876,5.828C76.113.882,89.932,7.237,89.923,14.31,89.895,35.475,70.58,135.223,69.571,141.529s-11.811,7.971-12.44.02c-1-12.65-2.861-56.444-1-76.714.768-8.367,1.6-16.336,2.409-23.445q-15.2,27.454-47.024,78.616L0,114.744Q13.564,70.05,22.246,51.638c9.91-21.017,19.2-39.015,23.113-45.354C51.511-3.688,62.218-.209,67.876,5.828Z" transform="translate(125.077 14.928)" fill="#b28b67" fill-rule="evenodd"/>
          <path id="LegLower" d="M0,111.841,5.118,10.331c3.688-17.552,34.907-9.406,34.894,0-.029,21.355-12.857,95.127-12.866,101.489Z" transform="translate(164.151 8.029) rotate(20)" fill="#1f28cf" fill-rule="evenodd"/>
          <g id="Accessories_Shoe_Flat-Sneaker" data-name="Accessories/Shoe/Flat-Sneaker" transform="translate(125.286 117.672) rotate(30)">
            <path id="shoe" d="M1.678,6.07A21.472,21.472,0,0,0,0,12.774a50.177,50.177,0,0,0,.9,7.894H57.3q2.2-7.268-2.538-7.848T46.9,11.774L20.68.087A1,1,0,0,0,19.36.593l-.011.026L17.663,4.707a17.983,17.983,0,0,1-7.127,2.046,16.139,16.139,0,0,1-6.152-1.8h0a2,2,0,0,0-2.652.985Q1.7,6,1.678,6.07Z" transform="translate(0)" fill="#e4e4e4" fill-rule="evenodd"/>
          </g>
          <g id="Accessories_Shoe_Flat-Sneaker-2" data-name="Accessories/Shoe/Flat-Sneaker" transform="translate(178 145.332)">
            <path id="shoe-2" data-name="shoe" d="M1.678,6.07A21.472,21.472,0,0,0,0,12.774a50.177,50.177,0,0,0,.9,7.894H57.3q2.2-7.268-2.538-7.848T46.9,11.774L20.68.087a1,1,0,0,0-1.32.506l-.011.026L17.663,4.707a17.983,17.983,0,0,1-7.127,2.046,16.139,16.139,0,0,1-6.152-1.8h0a2,2,0,0,0-2.652.985Q1.7,6,1.678,6.07Z" fill="#e4e4e4" fill-rule="evenodd"/>
          </g>
          <path id="Leg-and-Butt" d="M170.77,36.433c0,26.567-12.616,88.537-12.624,94.387L131,130.841Q136.96,47.9,135.227,47c-1.734-.894-71.051,6.921-91.841,6.921C13.408,53.925,1.006,35.02,0,0H59.386c12.092,1.294,75.163,14.015,98.586,18.388C168,20.261,170.77,29.115,170.77,36.433Z" transform="translate(47)" fill="#2b44ff" fill-rule="evenodd"/>
        </g>
        <g id="Body_Pointing-Forward" data-name="Body/Pointing-Forward" transform="translate(34.224 67)">
          <path id="Skin-2" data-name="Skin" d="M0,35.412,34.71,16.4A85.865,85.865,0,0,1,51.771.432c1.712-.715,4.705-1.147,1.906,3.822s-5.521,10.321-4.1,11.852,4.983-.608,6.685,1.936q1.7,2.543-18.228,8.036L12.818,49.169Zm54.362,16.04,15.247-8.376q3.209-12.21,7.671-12.287c2.286-1.063-1.694,9.223,2.638,8.331s14.908-8.757,16.73-7.16c2.7,2.362.292,9.617-2.54,13.225-5.293,6.745-9.675,9.051-20.508,12.071q-8.495,2.369-18.37,9.5Z" transform="translate(81.414 7.288)" fill="#997659" fill-rule="evenodd"/>
          <path id="Sleeve" d="M5.5,6.364A85.289,85.289,0,0,0,52.751,0L57.09,16.026C43.453,25.855,25.36,32.84,10.935,30.139-.433,28.009-4.081,13.273,5.5,6.364Z" transform="translate(58.078 33.041) rotate(-9)" fill="#2026a2" fill-rule="evenodd"/>
          <path id="Clothes" d="M80.88,62.761q19.36,4.828,64.932-11.388,11.3,23.385,10.451,33.344c-26.063,13.614-48.4,19.684-66.8,20.085.585,10.919-.744,21.31-5.209,30.8-9.179,19.518-62.929,1.442-81,5C-8.068,103.851,13.814,88.914,13.832,65.4,13.851,39.642,34.53,0,37.573,0H65.32C66.851,19.669,74.556,41.346,80.88,62.761Z" fill="#1f28cf" fill-rule="evenodd"/>
        </g>
      </g>
    </g>
    <path id="Icon_awesome-server" data-name="Icon awesome-server" d="M282.885,121.306H18.859C8.444,121.306,0,107.98,0,91.542V32.014C0,15.576,8.444,2.25,18.859,2.25H282.885c10.415,0,18.859,13.326,18.859,29.764V91.542C301.744,107.98,293.3,121.306,282.885,121.306ZM254.6,39.455c-7.812,0-14.144,9.994-14.144,22.323S246.785,84.1,254.6,84.1s14.144-9.994,14.144-22.323S262.408,39.455,254.6,39.455Zm-37.718,0c-7.812,0-14.144,9.994-14.144,22.323S209.067,84.1,216.879,84.1s14.144-9.994,14.144-22.323S224.69,39.455,216.879,39.455Zm66.007,230.671H18.859C8.444,270.126,0,256.8,0,240.362V180.834C0,164.4,8.444,151.07,18.859,151.07H282.885c10.415,0,18.859,13.326,18.859,29.764v59.528C301.744,256.8,293.3,270.126,282.885,270.126ZM254.6,188.275c-7.812,0-14.144,9.994-14.144,22.323s6.333,22.323,14.144,22.323,14.144-9.994,14.144-22.323S262.408,188.275,254.6,188.275Zm-37.718,0c-7.812,0-14.144,9.994-14.144,22.323s6.333,22.323,14.144,22.323,14.144-9.994,14.144-22.323S224.69,188.275,216.879,188.275Zm66.007,230.671H18.859C8.444,418.947,0,405.621,0,389.183V329.655c0-16.438,8.444-29.764,18.859-29.764H282.885c10.415,0,18.859,13.326,18.859,29.764v59.528C301.744,405.621,293.3,418.947,282.885,418.947ZM254.6,337.1c-7.812,0-14.144,9.994-14.144,22.323s6.333,22.323,14.144,22.323,14.144-9.994,14.144-22.323S262.408,337.1,254.6,337.1Zm-37.718,0c-7.812,0-14.144,9.994-14.144,22.323s6.333,22.323,14.144,22.323,14.144-9.994,14.144-22.323S224.69,337.1,216.879,337.1Z" transform="translate(1555 418.75)" fill="#b1bac0"/>
    <path id="Icon_material-phonelink-ring" data-name="Icon material-phonelink-ring" d="M45.818,20.569l-2.366,2.846a14.991,14.991,0,0,1,0,18.5l2.366,2.846c5.914-6.546,5.914-17.361,0-24.192ZM40.85,26.546l-2.366,2.846a6.481,6.481,0,0,1,0,6.546l2.366,2.846a9.856,9.856,0,0,0,0-12.238ZM31.388,1.5H7.731C5.129,1.5,3,4.061,3,7.192v51.23c0,3.131,2.129,5.692,4.731,5.692H31.388c2.6,0,4.731-2.562,4.731-5.692V7.192C36.119,4.061,33.99,1.5,31.388,1.5Zm0,54.076H7.731V10.038H31.388Z" transform="translate(253 530.5)"/>
    <path id="Icon_awesome-arrow-right" data-name="Icon awesome-arrow-right" d="M68.534,9.546,76.521,4.31a12.012,12.012,0,0,1,12.2,0l69.937,45.83c3.382,2.217,3.382,5.8,0,8L88.717,103.989a12.012,12.012,0,0,1-12.2,0l-7.987-5.236c-3.418-2.241-3.346-5.9.144-8.09l43.351-27.078H8.634C3.849,63.584,0,61.06,0,57.923V50.376c0-3.137,3.849-5.661,8.634-5.661H112.029L68.678,17.637C65.152,15.443,65.08,11.787,68.534,9.546Z" transform="translate(1369.162 590.851)" fill="#b1bac0"/>
    <path id="Icon_awesome-arrow-right-2" data-name="Icon awesome-arrow-right" d="M77.249,9.546l9-5.236A15.037,15.037,0,0,1,100,4.31l78.831,45.83c3.812,2.217,3.812,5.8,0,8L100,103.989a15.037,15.037,0,0,1-13.747,0l-9-5.236c-3.852-2.241-3.771-5.9.162-8.09l48.864-27.078H9.732C4.339,63.584,0,61.06,0,57.923V50.376c0-3.137,4.339-5.661,9.732-5.661H126.275L77.412,17.637C73.438,15.443,73.356,11.787,77.249,9.546Z" transform="translate(362.013 590.851)" fill="#b1bac0"/>
  </g>
</svg>
